<?xml version="1.0" encoding="utf-8"?>
<!-- Generator: Adobe Illustrator 17.0.0, SVG Export Plug-In . SVG Version: 6.00 Build 0)  -->
<!DOCTYPE svg PUBLIC "-//W3C//DTD SVG 1.1//EN" "http://www.w3.org/Graphics/SVG/1.1/DTD/svg11.dtd">
<svg version="1.1" xmlns="http://www.w3.org/2000/svg" xmlns:xlink="http://www.w3.org/1999/xlink" x="0px" y="0px" width="259px"
	 height="284px" viewBox="0 0 259 284" enable-background="new 0 0 259 284" xml:space="preserve">
<g id="Layer_1" display="none">
	
		<image display="inline" overflow="visible" width="500" height="500" xlink:href="cherry.png"  transform="matrix(2 0 0 2 -129 -87)">
	</image>
</g>
<g id="red">
	<g>
		<g>
			<path fill="#FCC5DF" d="M95.571,166.048c-2.818-1.325-5.486-2.812-8.063-4.563c2.007,1.363-1.84-1.769-1.784-1.715
				c-3.232-3.117,0.826,1.746-1.266-1.544c-4.275-6.724-7.044-13.419-13.888-18.179c-12.74-8.861-29.675-5.476-42.102,2.095
				C6.381,155.6,1.205,182.742,10.746,205.655c4.931,11.844,12.043,21.311,22.219,29.128c8.997,6.911,20.89,8.792,31.945,8.502
				c24.56-0.645,47.609-13.561,56.587-37.009c3.524-9.205,3.778-21.491,0.022-30.65c-4.31-10.509-11.46-18.041-20.52-24.691
				c-14.996-11.008-37.694-17.642-55.987-12.4c-7.855,2.251-12.662,10.508-10.477,18.452c2.15,7.816,10.595,12.728,18.452,10.477
				c0.879-0.252,1.754-0.466,2.649-0.654c3.32-0.694-3.65,0.335-0.16,0.056c2.076-0.166,4.167-0.07,6.24,0.081
				c3.763,0.273-3.405-0.581,0.407,0.023c1.132,0.18,2.253,0.426,3.372,0.671c2.703,0.591,5.345,1.433,7.95,2.355
				c0.549,0.194,4.273,1.76,0.905,0.299c1.114,0.483,2.202,1.025,3.289,1.566c2.161,1.076,4.231,2.322,6.257,3.629
				c0.998,0.643,1.956,1.345,2.912,2.047c-2.95-2.165,0.085,0.189,0.56,0.607c0.853,0.75,1.65,1.56,2.445,2.371
				c0.591,0.603,3.573,4.463,1.165,1.19c0.755,1.027,3.631,6.82,2.001,2.846c0.388,0.946,0.659,1.932,0.927,2.916
				c0.929,3.414-0.216-3.507,0.092,0.031c0.116,1.328,0.09,2.667,0.068,3.998c-0.011,0.644-0.557,4.809,0.027,1.032
				c-0.185,1.194-0.494,2.364-0.803,3.53c-0.215,0.756-0.456,1.503-0.724,2.241c0.808-1.778,0.861-1.909,0.159-0.39
				c-0.482,1.033-1.069,2.013-1.654,2.989c-0.36,0.601-2.644,3.583-0.291,0.631c-1.411,1.771-3.069,3.331-4.776,4.811
				c2.796-2.424-0.025-0.011-0.621,0.399c-0.952,0.655-1.955,1.235-2.954,1.813c-1.01,0.585-2.062,1.094-3.112,1.602
				c-1.536,0.692-1.424,0.651,0.335-0.122c-0.737,0.286-1.481,0.555-2.23,0.808c-2.26,0.791-4.593,1.358-6.933,1.854
				c-0.656,0.139-4.671,0.718-0.772,0.22c-1.197,0.153-2.402,0.233-3.605,0.313c-2.401,0.16-4.81,0.103-7.21-0.03
				c-0.691-0.038-4.696-0.527-0.749,0.026c-1.429-0.2-2.811-0.536-4.195-0.938c-0.833-0.242-3.951-1.702-0.325-0.034
				c-0.973-0.448-1.898-0.995-2.82-1.539c-0.941-0.554-1.826-1.197-2.71-1.836c3.1,2.24,0.155-0.029-0.385-0.521
				c-1.701-1.548-3.212-3.294-4.659-5.077c2.32,2.859-0.056-0.265-0.402-0.781c-0.883-1.319-1.662-2.704-2.425-4.093
				c-0.576-1.049-1.083-2.133-1.59-3.216c1.561,3.336-0.06-0.255-0.278-0.852c-0.817-2.229-1.411-4.532-1.919-6.848
				c-0.159-0.725-0.669-4.634-0.189-0.621c-0.136-1.141-0.185-2.29-0.231-3.438c-0.046-1.131,0.001-2.264,0.05-3.394
				c0.155-1.712,0.091-1.491-0.191,0.663c0.109-0.726,0.243-1.448,0.399-2.166c0.216-1.07,0.539-2.114,0.863-3.154
				c1.096-3.517-1.454,2.897,0.151-0.407c0.474-0.976,1.061-1.889,1.647-2.799c2.016-3.128-2.201,2.562,0.468-0.496
				c0.853-0.977,1.83-1.839,2.795-2.701c-2.308,2.062,1.088-0.726,1.4-0.932c1.189-0.784,2.457-1.437,3.722-2.086
				c-2.415,1.241,2.402-0.779,3.057-0.961c1.783-0.349,1.812-0.41,0.086-0.183c0.894-0.087,1.789-0.12,2.687-0.099
				c1.79,0.113,1.764,0.1-0.079-0.041c1.644,0.522,1.673,0.47,0.086-0.156c1.423,0.873,1.529,0.89,0.318,0.052
				c1.193,1.305,1.307,1.395,0.342,0.27c1.336,1.906,2.325,4.079,3.396,6.138c4.94,9.505,13.636,16.473,23.204,20.972
				c7.399,3.479,16.12,2.135,20.523-5.381C104.803,179.997,102.969,169.527,95.571,166.048L95.571,166.048z"/>
		</g>
	</g>
	<g>
		<g>
			<path fill="#FCC5DF" d="M142.222,193.08c-17.883,18.401-9.051,49.179,5.166,66.883c8.473,10.552,21.948,16.149,35.04,17.738
				c13.115,1.592,25.965-2.241,37.841-7.453c11.092-4.868,21.805-13.382,27.627-24.136c6.673-12.326,5.432-27.179,1.21-40.063
				c-4.042-12.334-10.232-25.339-20.931-33.155c-13.979-10.212-31.297-5.09-45.244,2.153c-7.25,3.765-9.356,13.737-5.381,20.523
				c4.282,7.31,13.266,9.15,20.523,5.381c4.016-2.086,6.239-3.083,10.974-4.063c-1.118,0.26-0.73,0.31,1.164,0.152
				c-1.315-0.277-1.155-0.222,0.481,0.165c-1.45-0.743-1.406-0.713,0.13,0.092c3.489,1.847-1.693-1.781,1.187,0.944
				c1.131,1.297,1.231,1.324,0.302,0.08c0.542,0.743,1.051,1.508,1.528,2.294c1.224,1.924,2.227,4.014,3.252,6.048
				c0.23,0.457,2.468,5.435,1.505,3.109c0.967,2.335,1.764,4.733,2.498,7.149c0.586,1.93,1.009,3.901,1.394,5.878
				c-0.534-2.744,0.148,2.705,0.162,3.346c0.003,0.961-0.036,1.92-0.116,2.877c0.253-1.629,0.209-1.557-0.13,0.217
				c-0.218,0.917-0.486,1.818-0.804,2.705c0.916-2.792-0.849,1.183-1.059,1.519c-0.985,1.394-1.008,1.438-0.067,0.131
				c-0.589,0.686-1.203,1.351-1.839,1.994c-0.647,0.654-1.315,1.287-2.004,1.898c-3.294,3.02,2.284-1.51-1.398,1.148
				c-1.562,1.128-3.225,2.11-4.89,3.074c-0.848,0.477-1.706,0.935-2.574,1.373c-0.127,0.066-4.481,2.028-1.738,0.892
				c-3.508,1.453-7.169,2.513-10.863,3.367c-0.676,0.156-6.286,0.958-2.563,0.531c-2.428,0.279-4.87,0.251-7.305,0.125
				c-1.819-0.175-1.919-0.169-0.298,0.016c-0.939-0.164-1.87-0.36-2.795-0.59c-0.92-0.228-1.831-0.489-2.733-0.782
				c-4.277-1.306,2.377,1.283-1.657-0.618c-1.708-0.805-3.302-1.825-4.869-2.87c1.13,0.944,1.022,0.85-0.323-0.283
				c-1.099-0.929-2.086-1.98-3.069-3.027c-1.129-1.341-1.262-1.468-0.398-0.382c-0.576-0.81-1.12-1.641-1.632-2.493
				c-0.754-1.202-1.378-2.487-1.997-3.761c-0.679-1.506-0.642-1.393,0.111,0.34c-0.303-0.767-0.589-1.54-0.859-2.319
				c-0.724-2.019-1.271-4.096-1.769-6.18c-0.193-0.85-0.364-1.705-0.515-2.564c0.2,1.836,0.206,1.874,0.019,0.116
				c-0.221-2.105-0.186-4.221-0.049-6.329c-0.246,3.781,0.357-0.946,0.644-1.872c-0.826,1.784-0.864,1.931-0.112,0.443
				c1.678-3.199-2.097,2.059,0.438-0.55c5.695-5.86,5.841-15.372,0-21.213C157.718,187.363,147.918,187.218,142.222,193.08
				L142.222,193.08z"/>
		</g>
	</g>
	<g>
		<g>
			<path fill="#FCC5DF" d="M180.429,176.548c-2.88,1.359-5.668,2.883-8.469,4.394c-1.6,0.863-3.22,1.68-4.86,2.462
				c2.809-1.338-2.174,0.684-2.793,0.864c-7.842,2.292-12.67,10.477-10.477,18.452c2.141,7.785,10.606,12.77,18.452,10.477
				c8.315-2.43,15.526-7.083,23.289-10.745c7.394-3.488,9.236-13.942,5.381-20.523C196.553,174.419,187.824,173.06,180.429,176.548
				L180.429,176.548z"/>
		</g>
	</g>
	<g>
		<g>
			<path fill="#FCC5DF" d="M33.036,171.512C27.223,188,37.59,203.423,53.003,209.116c5.537,2.045,11.471,2.558,17.331,2.811
				c1.178,0.051,4.088,0.587-0.755-0.208c1.395,0.229,2.971,1.452-0.76-0.489c-0.577-0.467-1.155-0.933-1.732-1.4
				c1.042,1.074,0.884,0.781-0.474-0.879c1.035,1.394,1.734,3.045,2.436,4.619c2.696,6.05,11,8.527,16.94,6.893
				C92.297,218.729,97.172,212.644,97,206c-0.001-1.864-0.041-1.962-0.122-0.296c0.295-1.376,0.841-2.732,1.278-4.068
				c1.003-3.068,1.427-6.419,1.344-9.636c-0.166-6.428-4.421-13.009-11.012-14.464c-6.204-1.369-11.337-0.348-17.205,1.505
				c1.886-0.15,3.686,0.289,5.399,1.315c2.894,1.416,0.623,0.33-0.325-0.65c-1.906-1.97-4.063-3.737-6.397-5.174
				c-9.895-6.091-21.918-0.745-27.07,8.705c-3.709,6.804-5.228,15.985-2.584,23.414c4.285,12.041,14.75,15.976,26.682,14.313
				c8.114-1.131,12.429-11.354,10.477-18.452c-2.377-8.642-10.36-11.604-18.452-10.477c4.179-0.582,6.273-0.001,9.336,4.282
				c-1.549-2.166,1.179,3.652,0.458,0.991c1.082,3.991,0.255,2.592,0.228,0.976c-0.02-1.214,0.621-3.831-0.202,0.844
				c0.136-0.773,0.372-1.525,0.608-2.271c0.876-2.777-1.639,3.341-0.309,0.901c1.288-2.362-2.531,2.804-0.79,1.014
				c-2.014,2.07-4.976,3.199-7.842,3.228c-6.182,0.062-9.073-4.875-5.357-1.081c2.169,2.215,4.512,4.418,7.315,5.79
				c4.867,2.381,10.146,2.877,15.421,1.595c1.381-0.336,2.702-0.752,4.046-1.215c3.42-1.178,3.528,0.465-1.413-0.625
				c-3.671-4.821-7.342-9.643-11.012-14.464c0.001,1.864,0.041,1.962,0.122,0.296c-0.295,1.376-0.841,2.732-1.278,4.068
				c-1.003,3.068-1.427,6.419-1.344,9.636c9.317-2.524,18.635-5.047,27.952-7.571c-4.892-10.979-13.799-16.034-25.508-16.54
				c-0.976-0.042-6.423-0.62-2.206,0.001c-1.271-0.187-2.513-0.521-3.751-0.854c-4.022-1.083,2.355,1.399-1.28-0.443
				c-3.496-1.772,1.812,1.941-1.019-0.595c-2.757-2.47,1.261,2.36-0.527-0.786c0.434,0.764,0.794,4.861,0.687,1.713
				c0.105,3.093,0.256-0.421,0.615-1.437c2.72-7.716-3.013-16.399-10.477-18.452C43.184,158.752,35.752,163.809,33.036,171.512
				L33.036,171.512z"/>
		</g>
	</g>
	<g>
		<g>
			<path fill="#FCC5DF" d="M180.012,193.536c-9.795,3.296-18.444,8.522-22.145,18.644c-3.13,8.562,0.353,17.496,5.89,24.087
				c10.021,11.928,30.407,17.774,45.004,11.904c21.529-8.657,25.67-38.16,6.54-51.929c-9.103-6.552-21.336-4.847-29.608,2.05
				c-8.629,7.195-9.845,20.923-3.145,29.779c4.922,6.507,12.836,9.884,20.523,5.381c6.426-3.764,10.327-13.985,5.381-20.523
				c-0.552-0.648-1.025-1.349-1.419-2.103c0.709,1.073,1.09,2.256,1.144,3.549c-1.811,5.022-2.095,6.391-0.853,4.105
				c-1.17,2.001-2.412,2.718-4.493,3.549c1.605-0.412,1.247-0.4-1.073,0.036c-0.653-0.109-1.305-0.219-1.958-0.328
				c1.552,0.456,1.356,0.365-0.589-0.274c-0.866-0.415-1.509-1.052-1.93-1.909c2.202,2.957-0.626-2.714,0.484,0.71
				c0.372,1.694,0.379,1.509,0.019-0.555c-0.054,1.724,0.054,1.54,0.323-0.552c-0.13,0.751-0.313,1.489-0.55,2.213
				c1.14-3.963-1.327,1.442,1.132-1.705c-1.176,1.15-1,1.13,0.528-0.059c-2.783,2.13,2.804-0.618-0.703,0.431
				c-0.71,0.2-1.429,0.363-2.156,0.489c3.906-0.781,0.529-0.198-0.441-0.187c-0.747-0.008-1.492-0.047-2.236-0.116
				c2.128,0.323,2.348,0.335,0.66,0.034c-1.826-0.346-3.593-0.951-5.326-1.609c3.807,1.446-1.192-0.882-2.087-1.458
				c-1.335-0.947-1.121-0.77,0.641,0.532c-0.729-0.6-1.377-1.288-2.019-1.978c3.389,3.647-0.857-2.69,1.199,2.337
				c-0.177-0.482-0.314-0.975-0.41-1.479c0.117,0.503-0.366,6.471,0.192,4.281c-1.108,2.342-1.265,2.819-0.47,1.43
				c-2.283,3.764,1.138-0.171-1.9,2.031c0.662-0.446,1.348-0.853,2.057-1.221c3.574-1.99-2.719,0.854,1.771-0.657
				c7.742-2.605,12.737-10.235,10.477-18.452C196.388,196.464,187.764,190.927,180.012,193.536L180.012,193.536z"/>
		</g>
	</g>
	<g>
		<g>
			<path fill="#FCC5DF" d="M82.5,212.333c1.168-0.121,2.33-0.295,3.488-0.493c0.167-0.029,1.431-0.22,0.307-0.071
				c0.511-0.068,1.024-0.093,1.538-0.103c2.452-0.046,4.5-2.012,4.5-4.5c0-2.418-2.047-4.546-4.5-4.5
				c-1.172,0.022-2.33,0.196-3.488,0.371c-0.376,0.057-0.751,0.125-1.126,0.189c-0.252,0.043-0.504,0.084-0.757,0.123
				c0.558-0.07,0.57-0.075,0.037-0.016c-2.439,0.253-4.5,1.855-4.5,4.5C78,210.094,80.055,212.587,82.5,212.333L82.5,212.333z"/>
		</g>
	</g>
	<g>
		<g>
			<path fill="#FCC5DF" d="M34.243,236.795c1.892,1.355,4.209,1.74,6.358,2.526c2.396,0.877,4.382,2.127,7.024,2.054
				c1.93-0.054,1.936-3.054,0-3c-2.261,0.063-4.189-1.119-6.226-1.946c-1.898-0.771-3.942-1.007-5.642-2.224
				C34.18,233.076,32.685,235.68,34.243,236.795L34.243,236.795z"/>
		</g>
	</g>
	<g>
		<g>
			<path fill="#FCC5DF" d="M34.554,236.399c1.163,4.919,9.266,4.477,13.048,5.298c1.886,0.409,2.688-2.483,0.798-2.893
				c-1.89-0.41-3.838-0.555-5.743-0.886c-1.398-0.243-4.807-0.618-5.209-2.316C37.001,233.719,34.109,234.517,34.554,236.399
				L34.554,236.399z"/>
		</g>
	</g>
	<g>
		<g>
			<path fill="#FCC5DF" d="M44.439,241.186c2.223,2.166,5.738,2.449,8.686,2.314c1.926-0.088,1.935-3.089,0-3
				c-2.088,0.096-4.96,0.128-6.564-1.436C45.175,237.714,43.052,239.834,44.439,241.186L44.439,241.186z"/>
		</g>
	</g>
</g>
<g id="white">
	<g>
		<g>
			<path fill="#FFFFFF" d="M102.667,167.667c-4.754,0.538-8.411,4.123-7.727,9.202c0.216,1.601,0.736,3.1,1.145,4.66
				c0.628,2.397-0.146,4.501-0.288,6.873c-0.156,2.6,0.573,4.533,2.921,5.846c4.388,2.454,7.501-4.784,8.576-7.655
				c2.389-6.379,2.539-13.443-2.733-18.32c-1.418-1.311-3.544,0.805-2.121,2.121c5.003,4.628,4.394,16.665-1.479,21.022
				c-2.848,2.112-1.839-4.873-1.793-5.249c0.172-1.433,0.3-2.84,0.03-4.274c-0.801-4.247-3.207-10.47,3.47-11.226
				C104.566,170.452,104.587,167.449,102.667,167.667L102.667,167.667z"/>
		</g>
	</g>
	<g>
		<g>
			<path fill="#FFFFFF" d="M101.935,169.887c-6.184,1.729-4.168,11.277-4.088,15.976c0.026,1.508,0.049,6.299,2.644,6.074
				c3.166-0.275,4.351-4.824,5.181-7.318c1.161-3.486,2.266-8.127,0.748-11.665c-0.769-1.792-2.477-2.791-4.074-1.242
				c-1.698,1.648-2.19,4.936-2.71,7.117c-0.608,2.552-2.136,6.134-0.431,8.428c0.711,0.957,1.88,0.955,2.59,0
				c2.58-3.467,1.277-7.407,1.985-11.358c-0.914,0.119-1.828,0.239-2.742,0.358c0.172,0.547,0.344,1.094,0.515,1.642
				c0.334,1.903,3.225,1.094,2.893-0.798c-0.21-1.194-0.253-1.358-0.818-2.358c-0.6-1.064-2.507-0.952-2.742,0.358
				c-0.632,3.528,0.579,7.604-1.682,10.642c0.863,0,1.727,0,2.59,0c-1.122-1.51,1.003-7.319,1.489-8.985
				c0.219-0.751,0.473-1.497,0.794-2.211c0.551-1.228-0.553-0.894-0.191,0.186c0.84,2.506-0.164,5.736-0.827,8.161
				c-0.431,1.578-2.304,4.57-1.947,5.806c-0.457-1.584-0.243-3.393-0.308-5.024c-0.105-2.597-1.472-9.944,1.928-10.894
				C104.592,172.26,103.801,169.365,101.935,169.887L101.935,169.887z"/>
		</g>
	</g>
	<g>
		<g>
			<path fill="#FFFFFF" d="M103.601,177.22c-0.983,0.35-1.531,0.898-1.881,1.881c-0.274,0.771,0.303,1.64,1.048,1.845
				c0.832,0.229,1.571-0.278,1.845-1.048c0.116-0.326-0.083,0.099-0.127,0.155c0.113-0.11,0.09-0.093-0.07,0.051
				c-0.188,0.069-0.194,0.072-0.017,0.008c0.77-0.274,1.277-1.013,1.048-1.845C105.242,177.523,104.372,176.946,103.601,177.22
				L103.601,177.22z"/>
		</g>
	</g>
	<g>
		<g>
			<path fill="#FFFFFF" d="M233.394,185.106c-2.56-2.827-6.222-3.78-9.91-4.033c-2.953-0.203-7.829,0.012-9.184,3.219
				c-1.125,2.663,1.018,5.434,2.856,7.155c1.161,1.087,2.515,1.766,3.978,2.34c2.822,1.106,5.038,2.097,7.463,3.926
				c2.171,1.637,5.477,2.625,7.446,0.089c1.72-2.215,0.945-5.544,0.1-7.948c-0.985-2.802-2.887-5.309-5.765-6.361
				c-1.953-0.714-4.016-0.875-6.083-0.923c-1.022-0.024-2.051,0.218-3.027,0.486c-0.943,0.259-1.569,1.164-2.536,0.833
				c-0.738-0.253-1.686,0.282-1.845,1.048c-1.455,6.983,10.569,8.081,14.052,11.626c0.702,0.715,1.837,0.497,2.356-0.304
				c4.167-6.434-3.809-11.238-9.488-11.653c-2.067-0.151-4.077,1.53-2.568,3.531c0.751,0.996,1.97,1.695,3.129,2.109
				c2.341,0.837,4.485,2,6.541,3.385c1.61,1.084,3.11-1.517,1.514-2.59c-1.734-1.167-3.515-2.135-5.432-2.965
				c-0.664-0.287-1.354-0.521-2.014-0.814c-0.339-0.165-0.663-0.354-0.973-0.568c-0.515,0.916-0.233,1.259,0.846,1.031
				c3.241,0.607,8.352,3.162,5.853,7.02c0.785-0.101,1.571-0.202,2.356-0.304c-1.786-1.818-4.48-2.728-6.743-3.78
				c-1.467-0.682-6.998-2.72-6.538-4.928c-0.615,0.349-1.23,0.698-1.845,1.048c2.1,0.719,3.068-0.542,5.015-1.076
				c2.916-0.801,7.309,0.214,9.147,2.689c1.058,1.425,1.668,3.37,1.9,5.11c0.466,3.494-2.044,3.098-4.248,1.313
				c-2.126-1.722-4.363-2.709-6.936-3.607c-2.344-0.818-4.637-2.217-5.643-4.619c-1.168-2.79,4.781-2.563,6.313-2.518
				c2.88,0.084,5.821,0.981,7.789,3.155C232.574,188.664,234.689,186.536,233.394,185.106L233.394,185.106z"/>
		</g>
	</g>
	<g>
		<g>
			<path fill="#FFFFFF" d="M219.205,187.924c-0.047-0.118-0.035-0.089,0.036,0.087c0.067,0.167,0.138,0.333,0.214,0.496
				c0.337,0.745,1.403,0.919,2.052,0.538c0.759-0.445,0.875-1.307,0.538-2.052c0.047,0.118,0.035,0.089-0.036-0.087
				c-0.067-0.167-0.138-0.333-0.214-0.496c-0.337-0.745-1.403-0.919-2.052-0.538C218.984,186.316,218.868,187.179,219.205,187.924
				L219.205,187.924z"/>
		</g>
	</g>
	<g>
		<g>
			<path fill="#FFFFFF" d="M102.25,174.25c0.033,2.478-1.867,4.629-2.682,6.911c-0.861,2.41-0.855,5.03-0.264,7.488
				c0.452,1.881,3.345,1.083,2.893-0.798c-0.729-3.034-0.012-5.816,1.485-8.48c0.926-1.648,1.594-3.207,1.569-5.121
				C105.224,172.317,102.224,172.314,102.25,174.25L102.25,174.25z"/>
		</g>
	</g>
</g>
<g id="black">
	<g>
		<g>
			<path fill="#242933" d="M59.75,144.833c1.293,11.006,10.771,16.18,20.819,18.003c2.837,0.515,4.049-3.822,1.196-4.339
				c-7.688-1.395-16.476-4.822-17.515-13.664C63.916,141.987,59.412,141.955,59.75,144.833L59.75,144.833z"/>
		</g>
	</g>
	<g>
		<g>
			<path fill="#242933" d="M57.154,133.16c-22.368-2.183-44.382,11.98-50.772,33.772c-7.004,23.889,2.587,49.256,19.492,66.479
				c8.768,8.933,19.043,12.984,31.527,12.818c11.917-0.159,25.075-3.047,36.053-7.616c22.072-9.185,37.677-32.413,33.447-56.758
				c-2.206-12.696-11.095-23.047-20.31-31.447c-9.908-9.032-23.832-14.461-37.054-15.524c-2.895-0.233-2.872,4.269,0,4.5
				c14.702,1.182,28.145,8.3,38.502,18.611c10.995,10.946,16.808,24.054,14.135,39.654c-2.335,13.627-10.416,24.727-21.839,32.282
				c-10.67,7.057-24.258,9.803-36.775,11.35c-6.338,0.783-12.733,0.653-18.923-0.989c-7.215-1.914-12.727-6.991-17.715-12.282
				c-9.161-9.715-15.244-22.074-17.562-35.19c-4.75-26.874,12.401-53.608,40.645-55.398c2.385-0.151,4.776,0.005,7.149,0.237
				C60.042,137.942,60.015,133.439,57.154,133.16L57.154,133.16z"/>
		</g>
	</g>
	<g>
		<g>
			<path fill="#242933" d="M55.917,137.583c4.69,0.188,9.552,1.205,14.194,1.92c2.838,0.437,4.057-3.899,1.196-4.339
				c-5.057-0.779-10.28-1.876-15.39-2.08C53.014,132.967,53.025,137.468,55.917,137.583L55.917,137.583z"/>
		</g>
	</g>
</g>
<g id="black_right">
	<g>
		<g>
			<path fill="#242933" d="M250.226,200.702c-3.832-15.901-14.894-30.299-31.133-34.659c-2.807-0.753-3.996,3.588-1.196,4.339
				c14.77,3.965,24.519,17.117,27.99,31.516C246.566,204.719,250.905,203.522,250.226,200.702L250.226,200.702z"/>
		</g>
	</g>
	<g>
		<g>
			<path fill="#242933" d="M199.954,166.938c-14.006,4.557-26.743,11.993-40.123,18.018c-5.759,2.593-11.88,3.008-17.218,6.519
				c-3.959,2.604-7.152,6.191-9.46,10.306c-9.503,16.939,0.694,39.277,10.181,53.812c6.255,9.584,13.971,16.27,24.779,20.272
				c12.582,4.658,26.222,4.727,39.108,1.336c6.494-1.709,12.466-5.311,18.453-8.263c6.276-3.095,11.865-6.05,17.042-10.847
				c10.103-9.362,13.498-24.015,12.55-37.384c-0.234-3.302-1.021-6.533-2.017-9.677c-0.873-2.756-5.218-1.578-4.339,1.196
				c4.166,13.148,2.041,29.718-7.108,40.339c-7.919,9.193-20.544,13.851-31.322,18.783c-11.706,5.356-26.234,4.599-38.282,1.123
				c-11.474-3.31-19.243-10.361-25.636-20.157c-8.815-13.506-17.707-33.676-8.981-49.23c2.208-3.935,5.749-6.848,9.555-9.142
				c2.479-1.494,5.349-1.803,8.121-2.397c2.908-0.623,5.798-2.233,8.488-3.444c12.492-5.625,24.323-12.569,37.406-16.825
				C203.898,170.383,202.722,166.037,199.954,166.938L199.954,166.938z"/>
		</g>
	</g>
	<g>
		<g>
			<path fill="#242933" d="M218.75,165.875c-6.285-0.699-13.09-0.022-19.286,1.143c-2.85,0.536-1.639,4.873,1.196,4.339
				c5.78-1.087,12.223-1.635,18.089-0.982C221.632,170.696,221.601,166.192,218.75,165.875L218.75,165.875z"/>
		</g>
	</g>
	<g>
		<g>
			<path fill="#242933" d="M245.687,200.75c0.077,1.958,0.823,3.657,1.472,5.477c0.743,2.08,1.027,4.292,1.796,6.371
				c0.998,2.697,5.348,1.531,4.339-1.196c-0.701-1.895-1.09-3.869-1.625-5.813c-0.443-1.61-1.415-3.146-1.482-4.839
				C250.074,197.858,245.573,197.847,245.687,200.75L245.687,200.75z"/>
		</g>
	</g>
	<g>
		<g>
			<path fill="#242933" d="M219.286,179.687c-2.899,0.019-6.648,0.157-8.526,2.781c-2.257,3.154-1.438,6.852,0.714,9.85
				c2.107,2.934,5.718,4.245,8.885,5.653c3.139,1.396,5.843,3.513,9.048,4.801c7.748,3.114,9.057-5.879,7.59-11.255
				c-0.882-3.234-2.879-7.668-5.878-9.47c-3.434-2.063-7.26-2.212-11.167-2.359c-2.903-0.11-2.892,4.391,0,4.5
				c4.475,0.169,8.375,0.195,10.903,4.409c1.312,2.187,2.171,4.701,2.428,7.238c0.395,3.898-2.872,2.61-4.883,1.534
				c-2.689-1.439-5.157-3.023-7.972-4.254c-2.227-0.973-4.325-2.033-5.782-4.062c-2.814-3.919,1.864-4.846,4.641-4.864
				C222.187,184.167,222.189,179.667,219.286,179.687L219.286,179.687z"/>
		</g>
	</g>
	<g>
		<g>
			<path fill="#242933" d="M103.25,165.667c-7.25,0.364-10.982,5.182-10.479,12.316c0.204,2.888,1.207,5.314,0.746,8.287
				c-0.279,1.796-0.899,4.051-0.27,5.828c1.014,2.865,2.957,4.88,6.126,5.197c13.921,1.393,17.824-30.081,4.127-31.546
				c-2.884-0.308-2.854,4.195,0,4.5c2.89,0.309,3.605,6.547,3.78,8.779c0.295,3.758-1.666,13.42-6.697,13.888
				c-4.763,0.444-2.505-5.695-2.41-7.574c0.089-1.761-0.099-3.327-0.421-5.049c-0.942-5.037-0.692-9.816,5.498-10.127
				C106.138,170.022,106.152,165.521,103.25,165.667L103.25,165.667z"/>
		</g>
	</g>
	<path fill="none" d="M192.937,181.125c-1.125,2.813-4.75,4.688-7.187,6.313c-2.688,1.813-5.813,3.625-9.063,4.438
		c-4.25,1.063-8.875,0.563-13.25,0.563"/>
</g>
<g id="stroke">
	<g>
		<g>
			<path fill="#242933" d="M76.6,157.451c6.226-4.331,12.953-7.993,18.823-12.823c5.518-4.54,9.837-10.376,14.006-16.14
				c8.654-11.965,15.139-25.774,18.138-40.257c2.919-14.098,2.148-27.792-5.615-40.184c-3.65-5.826-8.475-10.93-13.26-15.822
				c-2.53-2.586-5.337-4.88-6.393-8.479c-1.112-3.789-3.323-7.289-5.118-10.774c-1.831-3.557-6.725-3.728-9.423-1.214
				c-12.069,11.245,5.799,30.678,17.648,33.028c2.03,0.403,4.381,0.122,5.838-1.543c4.181-4.778,2.599-9.832-1.259-14.31
				c-1.827-2.12-3.922-3.97-5.814-6.03c-2.409-2.622-2.667-6.776-3.846-9.997c-1.739-4.752-8.145-6.155-10.966-1.433
				c-4.317,7.223-3.278,15.427,2.438,21.521c4.974,5.303,12.095-1.414,9.423-7.271c-0.913-2.001-2.017-3.925-2.835-5.967
				c-0.277-0.653-0.456-1.33-0.536-2.031c-1.991,0.087-3.982,0.174-5.973,0.261c0.622,0.035,0.699,0.584,0.231,1.647
				c0.358,5.516,3.586,10.348,6.001,15.146c3.479,6.914,13.83,0.836,10.362-6.057c-1.267-2.519-2.785-4.958-3.82-7.585
				c-0.85-2.157-0.627-4.543-1.306-6.749c-1.286-4.178-5.467-7.957-10.086-6.686c-4.646,1.278-6.886,5.644-7.409,10.022
				c-0.568,4.751,3.14,9.955,5.01,14.055c3.141-2.424,6.282-4.847,9.423-7.271c-2.082-2.22-2.078-4.442-0.562-6.979
				c-3.656-0.478-7.311-0.956-10.966-1.433c1.63,4.454,2.396,8.901,5.067,12.933c2.682,4.048,6.923,6.527,9,11
				c-0.202-1.541-0.403-3.082-0.605-4.623c0.181-0.216,0.362-0.432,0.543-0.648c1.946-0.514,3.892-1.029,5.838-1.543
				c-3.969-0.787-6.283-3.073-8.854-6.066c-1.11-1.293-5.196-5.323-3.499-6.905c-3.141-0.405-6.282-0.81-9.423-1.214
				c2.677,5.199,4.409,11.109,7.912,15.8c3.818,5.114,8.97,9.298,13.109,14.18c4.084,4.818,7.177,10.309,8.774,16.425
				c1.597,6.12,0.517,13.493-0.619,19.608c-2.329,12.545-8.025,24.117-15.039,34.668c-3.643,5.48-7.757,10.979-12.7,15.349
				c-5.313,4.697-11.907,7.993-17.713,12.031C64.24,151.475,70.23,161.883,76.6,157.451L76.6,157.451z"/>
		</g>
	</g>
	<g>
		<g>
			<path fill="#242933" d="M91.002,31.345c0.476,1.132,0.876,2.176,1.599,3.156c0.73,0.991,1.466,1.982,2.444,2.741
				c0.405,0.313,0.81,0.625,1.214,0.938c0.936,0.543,1.945,0.816,3.028,0.819c1.585,0,3.122-0.637,4.243-1.757
				c1.12-1.12,1.757-2.658,1.757-4.243c0-1.417-0.579-3.328-1.757-4.243c-0.571-0.443-1.063-0.957-1.506-1.527
				c0.313,0.405,0.625,0.81,0.938,1.214c-0.355-0.482-0.66-0.983-0.911-1.526c0.202,0.478,0.403,0.956,0.605,1.433
				c-0.028-0.066-0.055-0.132-0.083-0.197c-0.202-0.478-0.403-0.956-0.605-1.433c-0.533-0.902-1.251-1.619-2.153-2.153
				c-1.386-0.812-3.075-1.031-4.623-0.605c-1.5,0.413-2.8,1.416-3.586,2.757C90.881,27.961,90.416,29.952,91.002,31.345
				L91.002,31.345z"/>
		</g>
	</g>
	<g>
		<g>
			<path fill="#242933" d="M100.607,40.028c3.405,4.795,7.862,8.256,11.985,12.375c4.938,4.933,8.818,11.235,12.698,17.002
				c7.869,11.697,14.384,24.207,20.094,37.079c11.538,26.01,21.419,53.983,26.292,82.062c1.321,7.614,12.884,4.376,11.571-3.19
				c-4.966-28.617-15.309-56.582-26.746-83.196c-5.578-12.98-12.16-25.474-19.862-37.318c-3.802-5.846-7.909-11.513-12.183-17.02
				c-3.972-5.118-9.76-8.6-13.488-13.851C106.529,27.719,96.116,33.703,100.607,40.028L100.607,40.028z"/>
		</g>
	</g>
	<g>
		<g>
			<path fill="#242933" d="M68.16,148.788c-0.93,0.476-1.805,1.088-2.554,1.818c-0.586,0.57-0.572,1.549,0,2.121
				c0.584,0.584,1.536,0.57,2.121,0c0.583-0.568,1.173-0.952,1.946-1.349c0.727-0.373,0.934-1.377,0.538-2.052
				C69.782,148.592,68.887,148.415,68.16,148.788L68.16,148.788z"/>
		</g>
	</g>
	<g>
		<g>
			<path fill="#242933" d="M71.101,146.47c-2.092,0.83-3.665,2.462-5.692,3.401c-1.754,0.812-0.229,3.398,1.514,2.59
				c1.777-0.823,3.158-2.379,4.975-3.099C73.675,148.659,72.902,145.757,71.101,146.47L71.101,146.47z"/>
		</g>
	</g>
	<g>
		<g>
			<path fill="#242933" d="M172.167,189.833c0.001,0.695,0.031,1.392,0.22,2.065c0.221,0.787,1.054,1.265,1.845,1.048
				c0.856-0.235,1.172-1.038,1.048-1.845c-0.166-1.076-0.168-2.253-0.5-3.333c-0.566-1.844-3.462-1.057-2.893,0.798
				c0.331,1.077,0.33,2.225,0.5,3.333c0.964-0.266,1.929-0.532,2.893-0.798c-0.118-0.42-0.112-0.833-0.113-1.268
				C175.163,187.899,172.163,187.899,172.167,189.833L172.167,189.833z"/>
		</g>
	</g>
	<g>
		<g>
			<path fill="#242933" d="M179.97,184.982c0.197,1.34,0.728,2.593,1,3.917c0.389,1.894,3.28,1.091,2.893-0.798
				c-0.272-1.323-0.803-2.577-1-3.917c-0.119-0.81-1.131-1.244-1.845-1.048C180.158,183.373,179.851,184.174,179.97,184.982
				L179.97,184.982z"/>
		</g>
	</g>
	<g>
		<g>
			<path fill="#242933" d="M172,186.917c0.156,1.47,0.239,2.939,0.167,4.417c0.982-0.133,1.964-0.266,2.946-0.399
				c-0.272-0.873-0.219-1.781-0.28-2.685c-0.107-1.583-2.704-2.166-2.946-0.399c-0.183,1.337-0.226,2.641-0.054,3.982
				c0.104,0.811,0.604,1.5,1.5,1.5c0.739,0,1.604-0.687,1.5-1.5c-0.134-1.045-0.197-2.136-0.054-3.185
				c-0.982-0.133-1.964-0.266-2.946-0.399c0.079,1.167,0.034,2.353,0.387,3.482c0.512,1.641,2.864,1.295,2.946-0.399
				c0.072-1.478-0.01-2.946-0.167-4.417c-0.086-0.813-0.617-1.5-1.5-1.5C172.748,185.417,171.913,186.102,172,186.917L172,186.917z"
				/>
		</g>
	</g>
	<g>
		<g>
			<path fill="#242933" d="M94.375,9.375c-3.695,0.153-8.111,3.429-8.5,7.25c-0.196,1.924,2.806,1.905,3,0
				c0.212-2.08,3.601-4.171,5.5-4.25C96.302,12.295,96.31,9.295,94.375,9.375L94.375,9.375z"/>
		</g>
	</g>
</g>
<g id="green">
	<g>
		<g>
			<path fill="#C0FFC0" d="M70.098,156.17c5.798-1.863,10.59-5.561,15.575-8.938c5.426-3.676,10.37-7.492,14.808-12.357
				c8.533-9.354,13.832-20.667,18.115-32.467c4.008-11.044,6.679-22.798,6.246-34.602c-0.445-12.127-6.48-20.882-14.704-29.271
				c-4.298-4.384-8.523-8.678-11.533-14.088c-1.63-2.929-1.585-7.556-4.265-9.787c-1.942-1.617-5.182-0.936-5.906,1.624
				c-0.96,3.397,0.033,7.059,1.483,10.158c1.728,3.691,13.792,19.195,19.297,13.69c2.677-2.677,0.384-6.358-1.605-8.569
				c-4.716-5.241-8.905-10.644-10.69-17.66c-0.49-1.924-3.125-2.17-4.112-0.537c-3.567,5.9-2.876,11.982,1.852,16.977
				c1.882,1.989,4.513-0.529,3.534-2.727c-1.163-2.608-3.411-5.728-3.786-8.569c-0.332-2.519,0.621-4.038,1.289-0.747
				c1.155,5.683,2.318,9.704,5.861,14.587c1.686,2.324,5.593,0.082,3.886-2.271c-3.487-4.807-4.486-8.981-5.628-14.598
				c-0.567-2.79-2.665-4.802-5.526-4.986c-2.851-0.183-3.991,3.57-4.279,5.683c-0.649,4.766,2.439,9.002,4.297,13.171
				c1.178-0.909,2.356-1.818,3.534-2.727c-3.365-3.556-3.655-7.376-1.148-11.523c-1.371-0.179-2.742-0.358-4.112-0.537
				c1.918,7.54,6.421,14.203,11.848,19.646c2.45,2.457,1.383,1.526-0.308,0.535c-2.316-1.357-4.237-3.215-6.08-5.138
				c-2.915-3.041-5.146-6.639-5.469-10.875c0.297-0.911-0.042-1.237-1.019-0.977c0.329,0.741,0.609,1.5,0.84,2.277
				c0.412,1.253,0.756,2.524,1.198,3.767c1.164,3.275,3.402,6.178,5.508,8.895c5.525,7.127,12.894,12.487,17.518,20.352
				c9.243,15.72,1.431,38.363-4.706,53.811c-3.987,10.034-9.444,18.998-16.941,26.787c-3.814,3.962-8.303,6.955-12.826,10.02
				c-4.231,2.867-8.316,6.05-13.241,7.632C66.151,152.714,67.327,157.06,70.098,156.17L70.098,156.17z"/>
		</g>
	</g>
	<g>
		<g>
			<path fill="#C0FFC0" d="M94.83,30.348c0.688,1.635,1.661,3.142,3.079,4.243c0.968,0.751,2.234,0.948,3.182,0
				c0.786-0.786,0.971-2.429,0-3.182c-0.452-0.351-0.852-0.744-1.226-1.176c-0.169-0.205-0.19-0.231-0.062-0.077
				c-0.088-0.122-0.172-0.247-0.253-0.373c-0.08-0.126-0.157-0.254-0.23-0.384c-0.013-0.023-0.329-0.67-0.151-0.247
				c-0.475-1.13-1.469-1.929-2.768-1.571C95.335,27.874,94.354,29.215,94.83,30.348L94.83,30.348z"/>
		</g>
	</g>
	<g>
		<g>
			<path fill="#C0FFC0" d="M104.057,38.136c3.029,4.295,7.081,7.445,10.85,11.046c5.383,5.142,9.743,12.071,13.926,18.209
				c8.416,12.349,15.597,26.11,21.341,39.893c11.219,26.923,20.811,54.835,25.907,83.565c0.506,2.854,4.842,1.641,4.339-1.196
				c-5.21-29.373-15.171-57.801-26.637-85.318c-5.442-13.06-12.368-25.831-20.057-37.699c-3.808-5.877-8.101-11.548-12.448-17.036
				c-3.989-5.036-9.626-8.476-13.334-13.734C106.285,33.513,102.38,35.758,104.057,38.136L104.057,38.136z"/>
		</g>
	</g>
</g>
<g id="over_green">
	<g>
		<g>
			<path fill="#242933" d="M102.436,14.064c-4.089-4.366-11.161-5.333-15.621-1c-1.39,1.35,0.734,3.469,2.121,2.121
				c3.317-3.222,8.425-2.154,11.379,1C101.639,17.6,103.756,15.475,102.436,14.064L102.436,14.064z"/>
		</g>
	</g>
	<g>
		<g>
			<path fill="#242933" d="M85.868,20.17c4.665,3.302,11.92,2.217,16.193-1.235c1.505-1.216-0.631-3.325-2.121-2.121
				c-3.283,2.653-9.062,3.24-12.557,0.765C85.799,16.459,84.303,19.062,85.868,20.17L85.868,20.17z"/>
		</g>
	</g>
</g>
<g id="blck_over_green">
	<g>
		<g>
			<path fill="#242933" d="M65.064,154.561c2.018,1.616,4.073,3.184,6.21,4.641c1.603,1.093,3.102-1.508,1.514-2.59
				c-1.926-1.313-3.784-2.715-5.603-4.172C65.691,151.243,63.554,153.351,65.064,154.561L65.064,154.561z"/>
		</g>
	</g>
	<g>
		<g>
			<path fill="#242933" d="M163.055,193.545c4.701,2.23,11.808,0.703,16.718-0.294c5.505-1.118,11.68-5.305,14.084-10.494
				c0.808-1.743-1.778-3.268-2.59-1.514c-1.921,4.146-6.616,7.315-10.796,8.723c-3.743,1.261-12.065,2.809-15.902,0.989
				C162.832,190.131,161.308,192.717,163.055,193.545L163.055,193.545z"/>
		</g>
	</g>
</g>
<g id="black_over_green">
</g>
</svg>
